<?xml version="1.0" standalone="no"?>
<!DOCTYPE svg PUBLIC "-//W3C//DTD SVG 20010904//EN"
 "http://www.w3.org/TR/2001/REC-SVG-20010904/DTD/svg10.dtd">
<svg version="1.0" xmlns="http://www.w3.org/2000/svg"
 width="3183.000000pt" height="3683.000000pt" viewBox="0 0 3183.000000 3683.000000"
 preserveAspectRatio="xMidYMid meet">

<g transform="translate(0.000000,3683.000000) scale(0.100000,-0.100000)"
fill="#000000" stroke="none">
<path d="M10655 34270 c-58 -14 -81 -28 -137 -87 -106 -112 -194 -273 -267
-488 -60 -179 -123 -434 -152 -620 -34 -211 -41 -258 -49 -325 -4 -41 -11 -91
-14 -110 -23 -129 -45 -481 -52 -815 -8 -340 1 -496 51 -915 9 -69 20 -152 25
-185 5 -33 17 -109 25 -170 16 -103 57 -328 89 -490 30 -148 142 -601 211
-850 49 -179 70 -270 99 -425 49 -261 77 -380 126 -529 16 -51 28 -97 25 -102
-3 -4 -42 -20 -86 -34 -95 -30 -119 -41 -119 -58 0 -18 34 -36 124 -64 99 -31
176 -63 176 -73 0 -7 -26 -30 -89 -82 -12 -10 -11 -13 3 -23 9 -7 16 -20 16
-29 0 -20 -158 -237 -240 -328 -80 -91 -87 -117 -125 -458 -27 -240 -17 -324
45 -402 31 -38 31 -40 17 -71 -8 -18 -42 -92 -76 -164 -65 -141 -66 -147 -22
-187 12 -11 21 -25 21 -32 0 -20 -75 -109 -210 -248 -125 -129 -156 -168 -146
-185 10 -15 90 -30 201 -36 60 -3 111 -8 114 -10 15 -16 -96 -97 -239 -177
-99 -55 -150 -95 -144 -113 3 -8 58 -39 122 -70 155 -73 167 -81 167 -101 0
-19 -10 -23 -120 -44 -75 -15 -145 -39 -145 -50 0 -21 63 -50 148 -67 51 -10
93 -22 93 -27 0 -10 -87 -46 -112 -46 -8 0 -24 -7 -35 -15 -19 -15 -19 -15 0
-30 11 -9 40 -15 67 -15 26 0 50 -4 53 -9 3 -5 -15 -40 -40 -77 -92 -137 -177
-330 -172 -390 5 -57 36 -65 113 -29 34 15 80 28 105 29 43 1 45 0 48 -29 3
-29 -36 -240 -74 -400 -9 -38 -17 -86 -18 -105 l-1 -35 275 -12 c669 -29 1107
-58 1575 -103 55 -5 204 -19 330 -30 350 -31 571 -56 860 -95 61 -8 216 -28
345 -45 242 -30 307 -39 470 -65 52 -8 127 -20 165 -25 87 -13 277 -44 412
-67 106 -18 128 -32 99 -61 -12 -12 -24 -13 -78 -3 -271 50 -582 98 -943 145
-531 70 -654 86 -835 106 -318 34 -372 40 -495 51 -66 5 -167 14 -225 19 -363
33 -647 55 -1100 86 -274 18 -810 29 -828 17 -6 -5 -28 -47 -47 -94 -53 -129
-47 -146 39 -104 29 14 77 32 105 40 64 17 69 10 46 -66 -16 -54 -38 -159 -50
-234 -7 -45 7 -93 29 -101 14 -5 55 18 134 78 57 43 62 34 62 -116 l0 -119 58
6 c31 4 86 11 122 17 243 39 670 86 1005 110 542 39 1110 51 1775 40 483 -9
1081 -33 1101 -46 15 -9 10 -33 -10 -44 -11 -5 -39 -8 -63 -5 -129 15 -996 37
-1478 37 -670 1 -1103 -18 -1685 -72 -225 -21 -666 -85 -743 -108 l-57 -18 -3
-46 c-4 -54 18 -167 54 -287 29 -94 47 -127 75 -136 20 -7 93 22 138 55 16 11
34 20 39 20 6 0 31 -63 57 -139 25 -77 52 -144 59 -150 9 -8 45 0 132 28 423
139 520 166 959 266 381 86 660 142 1005 200 85 14 180 30 210 35 30 5 89 12
130 15 41 4 122 15 180 25 58 10 164 26 235 35 72 8 162 20 201 25 40 5 128
13 196 16 110 6 126 5 131 -9 9 -23 -16 -33 -103 -41 -132 -13 -703 -85 -750
-96 -25 -5 -99 -17 -165 -26 -156 -21 -414 -65 -725 -124 -136 -26 -553 -120
-740 -166 -262 -65 -751 -213 -773 -234 -5 -4 17 -43 49 -86 32 -44 68 -94 81
-111 13 -18 28 -33 33 -33 5 0 31 32 57 72 76 114 100 116 141 12 54 -138 139
-280 202 -341 56 -54 80 -44 105 45 10 34 20 27 51 -34 31 -60 80 -110 119
-120 19 -5 37 1 65 21 22 15 46 25 53 22 13 -5 32 -72 43 -158 6 -40 3 -48
-18 -65 -13 -10 -31 -30 -40 -44 -18 -29 -32 -158 -19 -179 6 -10 4 -22 -5
-35 -8 -11 -14 -30 -14 -41 0 -19 -47 -190 -89 -325 -25 -82 -66 -255 -80
-341 -36 -217 21 -430 171 -638 104 -144 118 -166 118 -182 0 -12 -25 -27 -82
-49 -46 -18 -140 -62 -210 -99 -70 -36 -130 -63 -133 -59 -6 6 15 150 35 233
16 66 12 127 -11 169 -102 191 -357 314 -576 277 -43 -7 -93 -19 -111 -27 -28
-11 -34 -11 -38 1 -3 7 13 80 35 162 66 245 79 293 178 683 76 301 94 384 89
419 -6 41 -107 248 -206 421 -21 36 -70 128 -110 205 -83 160 -127 237 -164
281 -50 60 -114 82 -746 246 -107 28 -211 54 -230 58 -19 4 -82 20 -140 35
-152 40 -220 55 -260 55 -22 0 -81 -21 -155 -56 -66 -31 -172 -80 -235 -109
-297 -137 -392 -187 -434 -230 -36 -38 -52 -46 -123 -64 -45 -11 -101 -30
-125 -42 -188 -95 -345 -290 -424 -526 -20 -62 -27 -105 -31 -208 -4 -78 -10
-133 -17 -137 -6 -4 -49 -8 -96 -8 -222 -1 -426 -111 -513 -277 -135 -261 -58
-674 179 -964 30 -36 54 -71 54 -77 0 -5 -36 -43 -81 -83 -121 -109 -234 -262
-288 -388 -47 -112 -51 -136 -51 -357 0 -268 2 -275 167 -491 185 -244 436
-477 746 -693 61 -43 107 -81 107 -91 0 -9 -9 -42 -20 -75 -23 -66 -51 -174
-71 -279 -17 -90 -18 -451 -1 -560 59 -377 56 -363 86 -520 55 -289 143 -600
239 -840 234 -591 604 -1009 1127 -1274 207 -105 352 -161 530 -204 263 -63
391 -79 645 -79 222 0 345 14 589 67 61 13 115 21 120 18 5 -3 6 -39 2 -82 -4
-42 -11 -123 -15 -181 -5 -58 -14 -163 -20 -235 -15 -195 -34 -964 -30 -1260
2 -143 0 -334 -5 -425 -12 -235 2 -274 125 -339 l61 -33 -6 -87 c-4 -47 -11
-111 -16 -141 -5 -30 -14 -158 -21 -285 -19 -362 4 -930 57 -1430 28 -270 33
-309 49 -420 9 -60 20 -137 25 -170 11 -83 47 -290 72 -415 11 -58 24 -125 28
-150 12 -70 95 -441 160 -715 34 -141 90 -392 125 -555 32 -150 38 -257 21
-398 -8 -73 -18 -136 -20 -140 -11 -18 -27 -181 -21 -218 10 -67 65 -121 179
-177 53 -25 96 -48 96 -51 0 -2 7 -41 17 -87 10 -54 16 -137 17 -234 0 -149 0
-151 -35 -235 -44 -108 -99 -193 -235 -361 -59 -74 -111 -136 -114 -139 -12
-9 -207 -265 -275 -360 -223 -311 -309 -397 -676 -680 -46 -35 -139 -119 -205
-185 -115 -113 -125 -126 -172 -225 -67 -142 -85 -211 -85 -340 0 -120 18
-201 66 -300 38 -79 138 -182 220 -228 67 -38 201 -85 303 -106 40 -8 91 -23
115 -34 129 -57 260 -83 440 -87 123 -2 127 -3 190 -38 35 -19 97 -45 137 -57
39 -12 75 -26 78 -31 7 -11 377 -12 389 -1 6 5 42 19 80 31 39 13 110 39 158
58 l88 35 67 -30 c77 -36 187 -72 218 -72 12 0 27 -7 34 -15 18 -22 212 -22
230 0 7 8 20 15 29 15 62 1 295 98 401 168 104 69 160 121 258 237 271 322
397 422 792 633 303 161 414 234 515 336 89 89 143 180 169 282 18 71 21 225
6 305 -6 30 -15 81 -20 114 -5 33 -16 101 -24 150 -56 335 -73 577 -56 794 19
248 72 524 108 564 9 10 37 28 62 39 78 35 194 118 226 161 17 23 36 65 42 92
16 72 62 561 62 655 0 45 7 65 46 132 25 43 50 78 55 78 12 0 26 -35 51 -130
49 -187 223 -588 261 -603 32 -12 37 15 37 197 0 185 5 229 23 223 5 -1 35
-52 66 -113 85 -166 145 -243 276 -357 74 -64 348 -241 457 -296 38 -19 50
-32 62 -65 27 -73 36 -119 51 -241 19 -150 19 -241 0 -430 -13 -135 -22 -204
-55 -397 -6 -32 -14 -84 -19 -115 -5 -32 -17 -98 -26 -148 -26 -141 -45 -291
-51 -405 -16 -256 84 -467 282 -599 94 -63 186 -107 478 -228 350 -145 528
-239 681 -361 39 -30 156 -142 260 -248 199 -201 250 -243 378 -313 74 -41
261 -111 296 -111 10 0 26 -7 37 -15 15 -11 53 -14 172 -15 83 0 152 4 152 8
0 4 26 16 58 26 31 9 98 35 149 56 l92 40 118 -39 c65 -22 151 -46 191 -54 40
-9 79 -21 87 -27 27 -22 198 0 370 48 22 6 68 29 102 51 51 34 72 41 129 46
234 21 409 62 539 126 55 27 147 64 204 83 116 39 163 68 228 140 144 161 175
436 73 662 -76 169 -206 298 -515 512 -246 170 -334 235 -412 307 -68 62 -228
237 -319 350 -22 28 -117 142 -210 255 -275 331 -327 408 -372 550 -25 79 -27
96 -26 261 0 197 7 227 57 248 17 8 50 26 72 39 44 28 112 35 445 47 206 8
405 28 443 46 16 7 27 19 25 28 -4 17 -103 70 -135 71 -21 0 -40 16 -30 26 2
2 125 11 273 19 527 29 846 94 1276 261 214 83 468 222 468 256 0 12 -263 6
-292 -7 -10 -4 -18 -3 -18 2 0 6 50 36 112 68 260 134 398 235 609 445 313
312 478 593 550 939 21 105 26 307 8 360 -12 35 -24 38 -65 17 -15 -8 -31 -13
-35 -11 -3 3 -10 34 -14 69 -13 124 -57 223 -118 270 -47 36 -142 77 -212 92
-247 54 -545 -57 -966 -358 -238 -170 -337 -227 -514 -295 -184 -72 -357 -116
-620 -157 -55 -9 -128 -21 -161 -26 -34 -6 -132 -10 -218 -10 l-156 0 0 27 c0
15 6 54 14 87 25 104 82 366 105 486 30 154 66 369 101 610 15 106 39 307 50
430 5 63 14 165 20 225 22 233 34 587 35 1001 0 439 2 464 37 464 20 0 84 34
111 59 15 14 32 41 37 61 5 19 12 166 14 325 3 160 10 335 15 390 6 55 13 230
17 388 5 201 10 287 18 284 6 -2 34 -60 61 -128 56 -137 75 -175 115 -234 15
-22 35 -56 43 -76 8 -20 35 -59 60 -87 31 -35 50 -69 62 -109 26 -92 103 -271
135 -318 38 -55 99 -85 196 -96 41 -4 79 -11 85 -15 13 -7 4 -102 -17 -183 -7
-29 -40 -121 -73 -205 -77 -197 -102 -301 -108 -451 -3 -83 -12 -149 -30 -215
-33 -125 -30 -248 10 -325 73 -143 239 -206 421 -159 106 27 173 70 285 181
61 61 110 103 119 101 27 -5 75 -112 76 -166 1 -41 -6 -57 -50 -122 -121 -177
-150 -366 -80 -524 57 -128 207 -211 425 -236 61 -7 78 -13 105 -38 64 -61
221 -116 371 -129 176 -15 406 90 610 279 39 35 90 78 116 95 117 80 215 226
304 452 20 52 49 120 66 152 l29 58 0 289 0 289 -36 108 c-40 121 -109 302
-147 385 -295 647 -547 1252 -547 1312 0 12 18 46 41 75 52 69 73 129 67 196
-4 54 -19 86 -170 377 -50 95 -78 161 -82 192 -10 80 -44 167 -126 318 -77
143 -139 290 -221 532 -23 68 -75 215 -117 328 -41 113 -85 234 -97 270 -135
384 -437 1097 -644 1525 -472 972 -833 1471 -1657 2290 -298 296 -394 403
-394 437 0 9 16 58 36 109 70 182 94 300 94 471 0 335 -142 864 -320 1194 -28
50 -50 97 -50 104 0 9 17 11 63 8 47 -3 104 -21 241 -77 232 -93 253 -88 139
31 -163 170 -472 420 -739 598 -304 204 -761 437 -1079 552 -137 49 -408 124
-625 173 -172 38 -206 53 -180 80 13 13 30 12 139 -11 347 -70 710 -182 972
-299 290 -130 520 -258 859 -478 317 -206 498 -349 672 -530 59 -61 109 -109
112 -106 9 9 -23 128 -48 177 -13 26 -45 75 -71 110 -25 34 -45 70 -43 79 4
24 67 29 107 8 33 -16 55 -11 81 19 17 21 65 20 141 -4 35 -10 89 -22 120 -26
80 -9 84 1 59 151 -11 64 -23 128 -26 141 -10 38 18 31 149 -42 65 -36 126
-64 135 -62 11 2 32 39 59 108 23 58 46 106 51 108 4 1 39 -9 77 -23 103 -37
105 -36 105 34 0 35 -5 62 -12 68 -11 9 -343 121 -448 152 -173 51 -677 166
-905 206 -49 9 -151 27 -225 40 -301 54 -889 139 -1110 160 -80 7 -238 23
-352 36 -185 20 -208 25 -214 42 -12 37 8 41 148 29 163 -14 380 -38 468 -51
36 -6 133 -20 215 -31 285 -37 380 -51 445 -61 133 -20 547 -90 595 -99 28 -6
131 -26 230 -46 242 -48 426 -89 565 -125 63 -17 140 -37 170 -45 30 -8 98
-26 150 -40 52 -14 128 -35 168 -46 40 -12 75 -18 79 -15 3 4 1 65 -7 136 -7
71 -9 134 -6 140 9 13 75 -19 182 -89 42 -28 80 -50 85 -50 13 0 11 90 -3 188
-7 52 -8 86 -2 92 6 6 43 0 99 -16 133 -38 129 -39 137 26 7 65 10 180 4 180
-3 0 -36 7 -74 15 -174 36 -713 108 -972 129 -983 80 -1533 85 -2653 25 -223
-12 -247 -9 -234 24 7 19 44 25 237 37 784 52 1484 53 2190 5 448 -31 655 -46
670 -50 8 -2 92 -14 185 -25 94 -11 262 -34 375 -50 113 -17 215 -30 228 -30
34 0 36 36 8 176 -14 71 -22 132 -17 137 5 5 56 -23 114 -62 166 -112 180 -96
96 110 -82 198 -90 222 -79 233 6 6 57 9 125 7 115 -3 115 -3 115 21 -1 55 20
53 -497 57 -263 2 -631 -2 -818 -8 -333 -12 -825 -37 -895 -46 -19 -3 -163
-19 -320 -35 -320 -35 -604 -74 -647 -91 -15 -6 -55 -13 -88 -16 -69 -5 -145
-18 -560 -93 -573 -103 -576 -103 -593 -86 -30 29 5 46 149 71 118 20 419 75
579 105 295 55 401 73 500 85 63 8 165 21 225 30 789 108 1185 133 2251 142
353 3 647 9 654 13 13 8 5 37 -60 205 -98 254 -113 296 -106 302 6 7 68 -30
121 -72 109 -86 315 -215 343 -215 26 0 8 56 -59 182 -136 257 -218 434 -259
556 -23 68 -39 130 -36 138 4 11 14 10 53 -7 102 -44 223 -66 223 -39 0 10
-176 262 -251 357 -27 35 -49 68 -49 74 0 12 9 11 268 -8 80 -6 82 -5 82 16 0
13 -29 58 -68 104 -92 112 -110 137 -179 252 -111 185 -211 428 -324 785 l-39
125 24 20 c44 36 50 67 49 261 -2 173 -22 390 -44 462 -6 17 -32 56 -58 85
-26 28 -91 106 -144 172 -52 66 -107 133 -121 149 -14 16 -26 33 -26 38 0 4
22 8 49 8 66 0 111 10 111 25 0 23 -84 108 -187 187 -57 44 -103 83 -103 86 0
4 62 8 138 9 149 2 195 11 200 36 2 10 -33 54 -87 110 l-91 94 21 79 c11 43
40 149 64 234 69 245 251 952 276 1070 5 25 16 74 24 110 79 342 162 830 195
1145 6 50 14 124 20 165 24 192 34 413 34 745 0 493 -23 756 -99 1140 -24 118
-36 166 -80 332 -24 89 -85 261 -147 417 -110 279 -189 405 -296 474 -97 62
-150 47 -387 -106 -264 -171 -610 -428 -1039 -772 -254 -203 -280 -225 -435
-360 -79 -69 -166 -145 -195 -169 -233 -197 -682 -646 -1011 -1011 -154 -172
-230 -241 -450 -411 -185 -143 -248 -176 -382 -198 -57 -10 -81 -9 -148 5 -44
10 -108 18 -142 19 -57 2 -67 6 -104 39 -39 36 -42 37 -64 22 -34 -22 -38 -21
-58 24 -26 56 -51 53 -108 -12 l-47 -53 -93 0 c-52 0 -159 6 -239 13 -80 7
-194 17 -255 22 -60 4 -148 14 -195 21 -116 17 -893 18 -1005 0 -44 -6 -123
-16 -175 -22 -139 -14 -224 -26 -325 -44 -49 -9 -124 -19 -165 -21 l-75 -5
-80 58 c-198 145 -238 147 -232 12 1 -38 -2 -63 -9 -66 -6 -2 -36 17 -67 42
-81 66 -117 59 -148 -29 -8 -21 -20 -41 -27 -44 -37 -14 -277 148 -522 352
-119 100 -184 166 -353 363 -254 297 -416 464 -787 809 -111 104 -401 355
-603 522 -302 252 -1050 844 -1156 916 -141 96 -237 132 -306 116z m3120
-6475 c213 -13 350 -26 565 -55 58 -8 101 -15 290 -49 130 -23 309 -64 385
-88 152 -48 197 -66 330 -129 184 -88 269 -203 326 -444 17 -70 17 -414 0
-525 -70 -448 -217 -854 -454 -1250 -231 -387 -517 -664 -847 -822 -85 -41
-243 -99 -310 -114 -237 -53 -313 -66 -475 -79 -155 -13 -542 -13 -715 0 -441
32 -811 140 -1070 313 -95 63 -242 211 -302 302 -198 301 -321 737 -363 1285
-32 423 -9 864 57 1055 72 209 190 329 403 411 39 14 84 30 100 35 17 4 55 15
85 23 56 16 211 49 310 65 411 69 1158 98 1685 66z m6170 5 c233 -11 370 -22
550 -46 655 -86 880 -191 1020 -479 93 -190 125 -371 125 -707 0 -212 -6 -297
-36 -543 -15 -121 -18 -138 -54 -320 -65 -330 -178 -638 -305 -836 -68 -107
-239 -272 -352 -342 -51 -31 -95 -57 -98 -57 -2 0 -30 -12 -62 -26 -111 -50
-142 -62 -188 -74 -16 -5 -77 -22 -135 -38 -94 -27 -172 -44 -325 -72 -171
-31 -352 -43 -655 -43 -544 0 -796 48 -1145 220 -168 82 -294 172 -425 303
-218 217 -400 508 -580 925 -75 173 -157 480 -189 705 -35 253 -39 360 -16
545 13 104 22 148 52 250 18 58 85 139 168 200 236 175 592 294 1070 359 193
26 275 35 495 51 490 35 746 41 1085 25z m-3373 -554 c8 -8 26 -11 46 -8 17 2
49 1 69 -4 l38 -7 -40 -8 c-22 -4 -158 -7 -302 -6 -171 0 -266 -3 -275 -10
-17 -15 -88 -33 -88 -24 0 4 9 16 20 26 11 10 20 15 20 11 0 -4 10 0 22 8 12
9 43 16 68 16 25 0 52 5 60 10 25 16 346 13 362 -4z m209 -36 c10 -6 19 -20
19 -30 0 -21 -15 -27 -25 -10 -3 6 -23 10 -43 11 -20 0 -46 4 -57 9 -17 7 -16
9 10 10 17 1 39 5 50 10 26 11 24 11 46 0z m-991 -2330 c0 -5 -2 -10 -4 -10
-3 0 -8 5 -11 10 -3 6 -1 10 4 10 6 0 11 -4 11 -10z m-2221 -821 c24 -9 39 -9
58 0 18 8 29 9 37 1 7 -7 2 -10 -17 -10 -35 0 -35 -16 1 -33 34 -18 248 -91
322 -110 30 -8 125 -35 210 -60 136 -40 330 -92 413 -111 20 -5 27 -12 27 -31
0 -13 -4 -26 -9 -29 -9 -6 -177 35 -426 104 -163 45 -244 71 -465 150 -80 28
-174 62 -210 74 -36 12 -74 27 -85 34 -17 10 -18 13 -5 22 20 13 109 13 149
-1z m5816 -22 c0 -7 -41 -24 -300 -127 -148 -58 -319 -109 -586 -174 -80 -19
-157 -39 -170 -44 -33 -12 -49 -5 -49 24 0 18 7 25 28 30 15 3 38 10 52 14 14
5 106 29 205 54 304 76 484 135 630 207 51 25 70 29 125 27 36 -2 65 -7 65
-11z m-4768 -1138 c19 -19 3 -38 -35 -45 -38 -7 -123 -28 -362 -90 -369 -97
-765 -258 -1084 -442 -432 -249 -780 -518 -1008 -779 -49 -57 -95 -103 -102
-103 -7 0 -18 10 -24 23 -11 20 -7 28 45 87 90 102 269 274 371 358 118 97
373 280 491 352 101 61 93 56 211 124 111 63 457 232 493 240 16 4 61 22 101
40 40 19 133 53 207 76 74 23 152 48 174 55 22 7 103 27 180 45 77 18 172 40
210 50 82 22 117 24 132 9z m-5144 -288 c78 -22 194 -53 257 -70 63 -16 142
-37 175 -46 33 -9 112 -30 175 -46 107 -29 267 -72 385 -105 28 -7 69 -19 92
-25 54 -14 68 -32 138 -164 31 -60 75 -139 95 -175 46 -78 102 -181 216 -398
74 -140 85 -168 81 -200 -2 -20 -30 -136 -62 -257 -31 -121 -60 -231 -62 -245
-8 -35 -65 -263 -103 -406 -31 -117 -47 -175 -90 -322 l-21 -74 -307 -150
c-322 -157 -490 -238 -498 -238 -2 0 -44 -18 -92 -41 -126 -59 -130 -61 -155
-47 -20 10 -142 47 -226 68 -19 5 -37 13 -40 19 -9 13 11 121 21 121 4 0 58
-16 119 -36 62 -20 128 -37 148 -37 24 0 78 20 161 60 69 34 166 79 215 101
95 43 264 122 431 203 56 26 106 54 112 62 12 14 17 32 93 327 28 107 73 281
100 385 99 381 129 504 129 526 0 19 -101 224 -200 404 -19 33 -53 95 -77 139
-24 43 -43 80 -43 82 0 2 -16 28 -35 58 -19 30 -35 59 -35 63 0 20 -60 71 -91
78 -19 4 -126 34 -239 66 -113 33 -227 67 -255 74 -112 33 -417 115 -521 141
l-111 28 -79 -36 c-43 -20 -171 -81 -284 -136 -113 -55 -231 -111 -262 -125
-60 -28 -85 -55 -98 -109 -9 -38 -86 -332 -160 -613 -28 -104 -57 -221 -66
-258 -9 -38 -22 -71 -28 -73 -13 -5 -102 32 -111 46 -3 5 4 44 16 87 12 43 25
92 29 108 5 17 12 41 16 55 3 14 36 131 71 260 36 129 71 258 78 285 8 28 25
91 39 140 13 50 28 99 32 109 6 17 175 103 379 195 57 26 230 107 320 151 33
15 66 29 73 29 7 1 77 -17 155 -38z m6390 -333 c2 -7 -2 -35 -10 -63 -12 -45
-33 -226 -33 -282 0 -13 -6 -23 -14 -23 -33 0 -256 245 -256 281 0 8 56 29
145 54 33 9 78 23 100 30 52 17 62 18 68 3z m1275 -59 c121 -26 132 -35 108
-86 -29 -60 -87 -132 -140 -170 -42 -32 -56 -29 -56 10 0 38 -27 229 -36 252
-8 20 6 19 124 -6z m-1776 -142 c291 -260 486 -366 739 -401 295 -41 626 -24
838 44 146 46 309 157 512 346 42 40 86 77 97 83 23 12 159 4 168 -10 3 -5
-14 -26 -38 -48 -24 -21 -74 -66 -113 -101 -421 -378 -632 -463 -1150 -463
-209 0 -255 2 -355 22 -278 55 -446 147 -750 410 -111 96 -200 179 -200 185 0
4 21 7 132 14 22 2 48 -16 120 -81z m1038 23 c19 -19 20 -33 20 -205 0 -141
-3 -185 -12 -186 -59 -7 -220 21 -304 52 -125 46 -184 115 -199 235 -9 62 -1
69 85 78 36 4 83 12 105 17 40 10 175 25 248 28 25 1 43 -5 57 -19z m548 4
c32 -9 37 -45 18 -121 -22 -90 -53 -143 -101 -170 -61 -35 -283 -101 -355
-106 -35 -2 -35 -2 -42 48 -9 70 -10 350 0 360 8 9 445 -1 480 -11z m-7908
-210 c316 -97 383 -120 388 -133 6 -15 -27 -119 -40 -127 -4 -3 -37 2 -73 11
-36 9 -71 15 -78 12 -12 -5 -18 -21 -62 -187 -28 -108 -71 -263 -90 -330 -7
-25 -30 -108 -50 -185 -62 -240 -73 -256 -141 -219 -37 20 -44 33 -17 30 12
-1 19 10 25 34 10 47 23 103 43 175 9 33 20 76 25 95 4 19 15 60 24 90 9 30
19 72 23 93 3 21 10 40 14 43 5 3 9 18 9 33 0 16 7 42 15 57 8 16 15 39 15 51
0 12 4 32 9 45 4 13 16 50 26 83 10 33 24 77 31 98 14 36 13 37 -10 37 -22 0
-25 -6 -31 -47 -3 -27 -10 -56 -16 -65 -5 -10 -9 -35 -9 -57 0 -22 -5 -41 -11
-43 -5 -2 -13 -22 -16 -46 -3 -23 -9 -42 -14 -42 -4 0 -9 -19 -11 -42 -2 -25
-8 -42 -14 -41 -7 1 -11 -3 -11 -10 2 -54 -4 -79 -15 -69 -10 8 -13 2 -13 -26
0 -24 -4 -36 -12 -34 -8 1 -13 -9 -13 -27 0 -16 -7 -36 -15 -45 -8 -8 -15 -31
-15 -50 0 -20 -4 -36 -10 -36 -5 0 -13 -18 -16 -40 -4 -22 -10 -40 -14 -40 -4
0 -10 -19 -13 -41 -3 -23 -11 -45 -18 -49 -8 -5 -10 -21 -6 -44 5 -31 3 -36
-14 -36 -20 0 -20 14 0 80 10 32 36 122 51 180 7 25 18 65 25 90 14 50 25 92
50 190 9 36 21 81 26 100 34 131 59 249 59 282 0 43 -11 51 -123 83 l-58 17 6
62 c4 33 9 67 11 75 5 16 14 14 174 -35z m587 -183 c48 -16 147 -48 220 -71
73 -23 138 -48 144 -56 16 -20 5 -252 -16 -324 -26 -92 -47 -154 -58 -167 -5
-7 -27 -13 -49 -13 -40 0 -40 0 -34 -32 8 -40 32 -309 41 -470 4 -65 8 -121 9
-125 2 -16 -46 -14 -72 3 -15 10 -45 23 -67 29 l-40 12 -8 64 c-4 35 -13 160
-20 278 l-12 215 -30 18 c-16 10 -36 18 -42 18 -17 0 -37 -43 -58 -125 -10
-38 -31 -117 -47 -175 -17 -58 -33 -119 -37 -135 -7 -25 -26 -71 -36 -83 -4
-5 -139 40 -152 50 -9 7 -8 19 2 51 12 37 24 79 55 192 5 17 25 100 45 185 20
85 45 191 57 235 11 44 23 96 28 115 15 68 33 135 41 158 5 13 9 43 9 68 0 41
22 114 34 114 3 0 44 -13 93 -29z m562 -172 c17 -6 35 -19 40 -28 5 -9 22 -82
37 -163 16 -82 33 -148 39 -148 6 0 63 47 127 105 85 77 124 105 143 105 28 0
105 -35 105 -48 0 -10 -79 -85 -165 -157 -121 -100 -195 -172 -195 -188 0 -8
26 -150 59 -314 32 -164 62 -316 65 -338 4 -22 9 -52 12 -67 5 -26 3 -28 -24
-28 -16 0 -55 11 -86 25 -31 14 -66 25 -77 25 -32 0 -34 10 -69 380 -16 161
-23 202 -36 207 -8 3 -28 -4 -46 -15 -62 -38 -139 -64 -154 -51 -15 12 -19 76
-6 95 4 7 43 39 87 71 119 90 139 113 131 160 -3 21 -9 57 -12 81 -7 42 -22
58 -26 25 -1 -10 -5 23 -9 72 -5 50 -11 116 -15 148 -6 56 -5 57 19 57 13 0
38 -5 56 -11z m10221 -545 c0 -3 -19 -42 -42 -87 -42 -81 -118 -192 -179 -263
-61 -72 -239 -242 -317 -304 -42 -34 -86 -69 -97 -78 -39 -33 -321 -217 -370
-242 -27 -14 -54 -29 -60 -33 -23 -18 -345 -181 -435 -220 -19 -8 -55 -24 -80
-35 -186 -82 -529 -202 -665 -232 -41 -9 -57 -13 -180 -48 -181 -52 -513 -108
-800 -136 -320 -32 -647 -39 -955 -22 -381 21 -543 37 -785 77 -219 36 -237
40 -299 55 -61 15 -117 28 -256 59 -340 75 -706 194 -1014 330 -19 8 -37 15
-40 15 -10 0 -205 90 -406 188 -63 30 -178 91 -255 135 -77 44 -155 88 -172
98 -86 49 -297 189 -313 208 -3 3 -32 26 -65 51 -90 66 -119 93 -244 219 -111
113 -211 233 -211 254 0 6 60 -50 133 -125 72 -74 143 -142 157 -151 21 -14
23 -18 10 -28 -13 -9 -12 -10 3 -5 17 5 59 -19 109 -64 31 -28 284 -200 293
-200 4 0 21 -10 38 -23 18 -12 41 -27 52 -34 131 -78 201 -119 210 -122 5 -2
12 -7 15 -10 6 -7 370 -188 445 -221 28 -13 79 -36 115 -52 36 -17 99 -43 140
-59 41 -16 84 -34 95 -38 11 -5 54 -21 95 -36 41 -14 86 -31 100 -37 51 -20
280 -94 385 -123 63 -17 86 -23 175 -49 72 -20 224 -57 275 -66 22 -4 83 -17
135 -28 52 -12 140 -28 195 -36 55 -9 114 -19 130 -22 30 -6 59 -10 280 -39
66 -8 185 -20 265 -25 80 -5 161 -12 180 -16 54 -9 373 -6 625 6 329 17 720
60 890 99 22 5 76 17 120 27 155 33 405 99 540 142 83 27 108 36 220 79 22 8
49 19 60 23 62 24 115 45 154 62 24 11 65 28 90 38 235 92 620 320 827 489 18
15 64 51 104 81 210 159 413 357 505 493 51 76 75 102 75 81z m-12102 -70 c3
-21 -18 -34 -133 -84 -27 -12 -57 -26 -65 -30 -8 -5 -42 -25 -75 -44 -58 -33
-75 -46 -142 -107 -18 -16 -37 -29 -42 -29 -5 0 -11 -7 -15 -15 -6 -17 -36
-21 -36 -5 0 6 6 10 14 10 7 0 33 21 58 48 24 26 51 52 60 57 18 12 138 101
155 115 7 5 17 10 22 10 6 0 14 6 18 14 4 8 21 16 37 18 16 1 32 9 34 17 4 12
-9 13 -79 7 -46 -4 -88 -11 -93 -16 -13 -13 -79 -13 -71 0 3 6 19 10 35 10 15
0 30 4 32 9 2 5 23 11 48 12 25 2 51 9 59 17 9 9 37 12 95 10 73 -3 81 -5 84
-24z m-363 -54 c4 -6 -6 -10 -22 -10 -22 0 -25 2 -13 10 19 12 27 12 35 0z
m-55 -30 c0 -5 -11 -10 -25 -10 -14 0 -25 -4 -25 -10 0 -5 -5 -10 -11 -10 -15
0 -34 -21 -54 -59 -15 -31 -15 -37 -1 -81 19 -57 19 -60 6 -60 -5 0 -10 9 -10
19 0 11 -6 21 -12 23 -15 5 -13 94 2 123 25 45 130 98 130 65z m5595 -424
c227 -111 502 -216 825 -316 74 -23 155 -48 178 -56 24 -8 76 -23 115 -33 250
-67 356 -95 387 -101 19 -5 89 -20 155 -34 263 -57 598 -107 995 -148 157 -16
597 -16 790 0 505 43 953 126 1390 259 286 86 757 293 984 433 75 45 86 48 86
20 0 -20 12 -53 38 -106 8 -17 13 -38 10 -45 -7 -19 -312 -200 -453 -270 -231
-114 -450 -200 -695 -273 -143 -42 -253 -73 -300 -84 -270 -64 -364 -83 -490
-101 -41 -6 -120 -17 -175 -25 -538 -78 -1015 -78 -1610 0 -159 21 -381 57
-460 74 -22 5 -74 16 -115 25 -189 41 -272 62 -555 140 -105 29 -437 143 -595
204 -61 24 -71 28 -153 65 -32 14 -59 26 -62 26 -14 0 -451 212 -478 232 -17
12 -17 15 4 58 12 24 24 61 27 82 2 21 9 38 15 38 6 0 70 -29 142 -64z m-4485
-323 c61 -19 151 -64 172 -85 22 -22 23 -46 2 -100 -37 -98 -109 -228 -126
-228 -13 0 -9 40 5 46 7 2 14 14 14 27 1 12 7 23 13 25 14 5 2 22 -16 22 -8 0
-14 -9 -14 -20 0 -23 -28 -27 -36 -5 -7 17 -34 21 -34 5 0 -5 4 -10 9 -10 5 0
11 -7 15 -15 3 -10 -1 -15 -12 -15 -15 0 -58 34 -138 110 -20 19 -44 27 -44
15 0 -3 16 -21 35 -41 19 -19 35 -39 35 -43 0 -5 6 -11 13 -14 6 -2 9 -7 6
-10 -3 -4 -19 6 -36 22 -18 16 -34 27 -36 24 -3 -2 -16 11 -30 29 -22 28 -24
39 -18 73 5 22 14 54 21 70 63 147 63 148 114 139 23 -3 61 -13 86 -21z
m12030 -1183 c0 -5 -4 -10 -10 -10 -5 0 -10 5 -10 10 0 6 5 10 10 10 6 0 10
-4 10 -10z m8 -70 c9 -31 9 -73 1 -192 -21 -287 0 -773 56 -1298 9 -85 20
-202 25 -260 5 -58 14 -153 19 -212 5 -59 12 -112 16 -118 4 -6 11 -46 16 -88
11 -99 24 -186 38 -242 6 -25 11 -62 11 -82 0 -20 5 -40 10 -43 6 -3 10 -29
10 -56 0 -28 5 -59 10 -69 6 -11 13 -47 15 -82 3 -35 10 -85 15 -113 17 -95
32 -281 41 -520 12 -310 26 -541 38 -635 11 -83 14 -146 6 -138 -9 9 -46 198
-52 263 -3 33 -9 65 -14 71 -5 6 -14 40 -19 75 -26 153 -50 280 -61 315 -5 17
-9 47 -9 68 0 20 -4 45 -9 55 -9 16 -18 65 -40 211 -5 30 -16 96 -26 145 -9
50 -20 119 -25 155 -5 36 -16 108 -25 160 -16 97 -26 168 -45 320 -5 47 -13
96 -16 110 -4 14 -10 68 -14 120 -4 52 -12 140 -18 195 -33 322 -37 407 -37
895 0 488 6 622 37 850 6 41 12 99 15 128 3 28 8 52 11 52 4 0 13 -18 20 -40z
m-9531 -22 c-3 -8 -6 -5 -6 6 -1 11 2 17 5 13 3 -3 4 -12 1 -19z m33 -70 c0
-5 -4 -8 -10 -8 -5 0 -10 10 -10 23 0 18 2 19 10 7 5 -8 10 -18 10 -22z m77 0
c-3 -8 -6 -5 -6 6 -1 11 2 17 5 13 3 -3 4 -12 1 -19z m-60 -70 c-3 -7 -5 -2
-5 12 0 14 2 19 5 13 2 -7 2 -19 0 -25z m93 -48 c0 -5 -4 -10 -10 -10 -5 0
-10 5 -10 10 0 6 5 10 10 10 6 0 10 -4 10 -10z m-43 -132 c-3 -7 -5 -2 -5 12
0 14 2 19 5 13 2 -7 2 -19 0 -25z m60 -60 c-3 -7 -5 -2 -5 12 0 14 2 19 5 13
2 -7 2 -19 0 -25z m-40 -20 c-3 -8 -6 -5 -6 6 -1 11 2 17 5 13 3 -3 4 -12 1
-19z m3043 -1488 c-14 -1939 -12 -1799 -20 -1680 -5 58 -9 242 -10 410 -1 168
-5 334 -9 370 -11 101 -23 -1462 -24 -3208 l-2 -1584 -185 7 c-265 9 -810 51
-1055 80 -71 8 -166 20 -210 25 -73 8 -184 24 -355 50 -36 5 -103 17 -150 25
-47 9 -107 20 -135 25 -152 26 -801 177 -910 211 -16 5 -77 23 -134 39 -57 17
-110 35 -118 41 -18 16 -19 209 0 209 7 0 17 -4 23 -10 20 -20 172 -69 394
-126 119 -31 166 -42 310 -74 190 -43 595 -116 825 -150 306 -45 444 -62 775
-100 229 -27 569 -57 700 -63 l45 -2 5 340 c3 187 7 1622 8 3188 l2 2848 25
50 c22 46 207 331 211 326 1 -1 -2 -562 -6 -1247z m4661 1094 c-28 -57 -51
-109 -51 -114 0 -6 -4 -18 -10 -28 -5 -9 -14 -29 -20 -44 -5 -16 -13 -28 -17
-28 -5 0 -21 26 -38 58 -16 31 -45 84 -65 117 -72 119 -81 181 -15 99 50 -64
75 -84 104 -84 33 0 85 42 123 101 51 77 45 38 -11 -77z m-8456 38 c-27 -90
-35 -112 -78 -202 -38 -81 -108 -194 -158 -257 -55 -68 -203 -203 -290 -265
-87 -62 -296 -176 -379 -206 -114 -42 -197 -66 -360 -102 -85 -19 -295 -40
-405 -40 -132 0 -313 21 -421 50 -299 78 -531 253 -639 483 -30 63 -36 87 -41
172 l-6 100 108 -106 c127 -124 217 -192 335 -250 108 -53 110 -54 199 -82
157 -50 248 -61 495 -61 237 1 314 10 485 59 30 9 69 19 85 24 62 16 273 105
365 154 240 126 429 280 633 516 45 52 83 89 85 82 2 -6 -4 -37 -13 -69z
m3186 -29 c-43 -84 -87 -184 -95 -215 -3 -16 -10 -28 -14 -28 -5 0 -30 43 -56
97 -27 53 -61 117 -77 142 -36 57 -37 72 -1 39 45 -42 75 -58 106 -58 37 0
106 33 136 65 13 14 25 23 27 21 3 -2 -9 -30 -26 -63z m4549 -15 c14 -29 50
-93 80 -142 l55 -91 6 -1770 c7 -1953 28 -4575 36 -4588 3 -5 24 -6 47 -3 22
4 97 11 166 16 69 6 181 17 250 25 69 9 161 20 205 25 44 5 127 16 185 25 58
9 132 21 165 26 52 7 254 41 410 69 77 13 306 60 345 70 19 5 109 28 200 50
91 22 190 48 220 56 30 9 71 20 90 24 19 5 60 16 90 25 30 9 67 19 83 22 15 3
30 9 33 14 3 5 18 9 34 9 17 0 33 7 39 18 9 15 10 13 11 -10 0 -41 -10 -57
-46 -73 -19 -8 -49 -21 -66 -29 -37 -16 -343 -118 -483 -161 -49 -15 -101 -31
-115 -36 -121 -41 -574 -147 -805 -189 -27 -5 -88 -16 -135 -25 -86 -16 -132
-23 -340 -51 -173 -23 -640 -64 -737 -64 l-32 0 -1 913 c-1 501 -6 1371 -11
1932 -15 1577 -23 3965 -13 3965 5 -1 20 -24 34 -52z m-6824 -35 c-10 -10 -19
5 -10 18 6 11 8 11 12 0 2 -7 1 -15 -2 -18z m4949 -60 c10 -32 33 -119 52
-193 19 -74 41 -144 48 -156 17 -27 91 -39 120 -20 11 7 33 38 49 67 50 95
140 224 160 227 10 2 22 -2 27 -10 5 -7 9 -89 9 -183 0 -191 5 -209 62 -240
l37 -20 46 25 c25 14 94 62 153 108 123 97 135 104 156 96 27 -10 19 -68 -30
-218 -59 -183 -63 -217 -34 -244 46 -43 137 -37 298 18 51 18 99 29 107 26 42
-16 -7 -93 -152 -239 l-97 -98 24 -47 c37 -71 59 -77 229 -74 137 2 171 -4
171 -28 0 -5 -42 -44 -92 -88 -138 -118 -198 -179 -198 -200 0 -45 83 -92 265
-149 67 -21 91 -33 93 -47 5 -25 -6 -31 -121 -67 -188 -58 -217 -76 -217 -135
0 -45 61 -108 180 -187 95 -63 116 -89 84 -101 -9 -3 -84 -9 -168 -12 -83 -4
-159 -11 -168 -15 -22 -12 -40 -76 -28 -99 5 -9 42 -43 82 -75 106 -85 158
-137 158 -157 0 -27 -31 -38 -76 -28 -73 18 -275 29 -300 18 -33 -15 -30 -32
20 -118 148 -256 145 -250 109 -250 -8 0 -32 9 -52 19 -89 48 -262 121 -283
121 -30 0 -48 -17 -48 -47 0 -13 27 -88 60 -167 33 -80 60 -152 60 -160 0 -46
-80 -2 -278 151 -91 72 -94 73 -121 58 -16 -8 -31 -20 -33 -27 -6 -16 2 -74
31 -232 12 -65 20 -124 17 -132 -12 -31 -44 -9 -160 108 -116 116 -167 158
-193 158 -16 0 -28 -48 -53 -210 -12 -74 -25 -151 -31 -171 -17 -65 -63 -59
-75 10 -6 35 -15 66 -54 196 -10 33 -26 86 -35 118 -14 52 -18 57 -44 57 -41
0 -63 -23 -127 -135 -103 -181 -141 -231 -162 -210 -4 3 -7 88 -7 188 -1 184
-8 227 -39 227 -19 0 -111 -69 -225 -168 -95 -83 -119 -94 -140 -68 -14 16 -8
45 40 188 16 47 32 107 35 132 8 54 -10 106 -36 106 -21 0 -151 -63 -253 -123
-89 -53 -105 -58 -119 -36 -8 11 4 44 50 135 104 205 108 224 66 269 -23 25
-29 27 -75 21 -27 -4 -89 -19 -137 -33 -48 -15 -111 -29 -140 -31 -49 -4 -53
-2 -50 16 3 21 204 262 218 262 16 0 19 30 5 57 -8 15 -15 41 -15 56 0 28 0
28 -52 23 -171 -19 -285 -26 -310 -21 -60 14 -23 62 112 145 133 82 180 126
180 171 l0 35 -174 58 c-100 33 -182 66 -192 77 -16 18 -16 20 1 39 9 10 31
24 49 29 51 17 238 53 281 55 l40 1 6 125 c4 69 12 139 17 157 12 38 7 45 -25
32 -37 -14 -114 -11 -183 7 -60 15 -91 12 -59 -7 21 -11 124 -89 167 -126 22
-18 36 -42 42 -68 9 -41 -3 -74 -16 -42 -3 10 -67 78 -140 153 -74 74 -134
139 -134 143 0 5 6 14 14 20 11 10 42 10 133 0 152 -16 208 -8 228 31 8 16 15
33 15 39 0 5 -39 54 -86 108 -112 127 -184 224 -184 246 0 32 56 22 168 -29
119 -55 204 -67 243 -35 28 22 28 21 -45 227 -51 144 -61 206 -35 212 9 1 58
-31 110 -72 116 -92 209 -142 239 -126 35 19 39 40 28 156 -6 60 -11 141 -12
179 -1 64 1 70 21 73 16 2 37 -16 91 -80 98 -117 155 -168 190 -168 54 0 59
13 81 192 23 178 34 222 54 216 6 -2 46 -71 87 -153 l76 -150 67 -3 68 -3 23
53 c13 29 38 112 56 183 37 149 44 165 70 165 14 0 23 -14 35 -57z m-4924 -24
c-7 -44 -9 -47 -10 -19 -1 36 9 84 15 77 3 -2 0 -28 -5 -58z m19 -173 c-12
-12 -13 15 -2 94 l7 55 3 -69 c2 -39 -2 -74 -8 -80z m31 -96 c-7 -82 -8 -87
-10 -35 -1 65 12 183 16 150 2 -11 -1 -63 -6 -115z m26 -77 c-2 -16 -4 -5 -4
22 0 28 2 40 4 28 2 -13 2 -35 0 -50z m-10 -450 c-1 -65 -3 -12 -3 117 0 129
2 182 3 118 2 -65 2 -171 0 -235z m40 200 c-2 -21 -4 -6 -4 32 0 39 2 55 4 38
2 -18 2 -50 0 -70z m0 -420 c-2 -21 -4 -4 -4 37 0 41 2 58 4 38 2 -21 2 -55 0
-75z m-57 -105 c-1 -77 -3 -98 -11 -85 -10 17 -3 187 7 187 2 0 4 -46 4 -102z
m-800 -68 c0 -5 -5 -10 -11 -10 -5 0 -7 5 -4 10 3 6 8 10 11 10 2 0 4 -4 4
-10z m-20 -25 c0 -10 -104 -151 -166 -226 -219 -263 -550 -477 -934 -602 -219
-72 -562 -100 -775 -63 -151 26 -181 34 -287 76 -88 34 -282 138 -298 160 -3
3 -14 10 -25 14 -13 6 -16 10 -7 13 7 3 50 -13 96 -35 243 -117 553 -168 871
-143 82 7 168 16 190 21 22 5 77 16 123 25 282 57 611 213 841 399 119 96 335
317 349 357 4 9 22 13 22 4z m859 -52 c-1 -21 -5 -51 -9 -68 -6 -23 -8 -15 -9
38 -1 39 3 67 9 67 6 0 9 -17 9 -37z m-68 -123 c-9 -44 -9 -44 -10 26 -1 39 2
74 7 78 11 12 13 -54 3 -104z m39 -82 c0 -42 -4 -67 -8 -58 -8 15 -4 130 4
130 2 0 4 -33 4 -72z m-60 -53 c0 -37 -4 -65 -10 -65 -5 0 -10 12 -10 28 0 33
11 102 16 102 2 0 4 -29 4 -65z m31 -145 c-9 -23 -10 -21 -10 17 -1 56 13 91
17 43 2 -20 -1 -47 -7 -60z m-57 -22 c-9 -59 -14 -60 -14 -5 0 26 5 47 10 47
6 0 8 -16 4 -42z m33 -80 c-2 -13 -4 -5 -4 17 -1 22 1 32 4 23 2 -10 2 -28 0
-40z m-51 -238 c-2 -25 -9 -67 -15 -95 -9 -44 -18 -79 -51 -215 -4 -19 -13
-48 -18 -65 -6 -16 -28 -84 -49 -149 -21 -66 -39 -112 -41 -102 -2 10 3 37 11
60 7 22 22 68 31 101 10 33 21 74 26 90 19 65 59 243 65 292 4 29 11 55 16 59
5 3 10 53 10 112 l2 107 9 -75 c5 -41 7 -95 4 -120z m25 110 c-9 -23 -10 -23
-10 11 -1 20 2 39 7 43 11 12 14 -27 3 -54z m2882 -3764 c-9 -111 -10 -94 -12
199 -8 1249 -10 2187 -3 2285 4 68 11 -387 16 -1124 5 -789 5 -1283 -1 -1360z
m9035 1877 c-77 -174 -153 -277 -370 -499 -106 -107 -158 -168 -158 -183 0
-13 12 -28 31 -40 l31 -19 -34 -25 c-18 -14 -79 -55 -136 -92 -99 -64 -132
-75 -132 -40 0 8 -12 34 -26 56 l-26 41 -76 -5 c-115 -9 -185 -18 -202 -25
-34 -14 -136 -29 -143 -22 -5 4 15 15 45 25 29 9 67 22 83 30 17 7 44 18 60
25 17 7 37 16 45 21 8 4 44 23 80 40 36 18 119 66 185 108 216 136 382 270
595 478 119 117 160 151 148 126z m-11403 -62 c94 -6 233 -15 310 -20 77 -6
223 -15 325 -21 438 -25 684 -40 686 -43 2 -1 -5 -68 -16 -147 -17 -135 -32
-289 -34 -352 -1 -14 -4 -29 -8 -33 -7 -8 -64 31 -116 79 l-33 31 -47 -26
c-26 -15 -74 -41 -107 -59 -33 -18 -84 -48 -113 -67 -29 -18 -153 -90 -275
-160 -122 -69 -238 -136 -258 -149 l-37 -23 -98 57 c-144 83 -335 204 -331
209 5 4 120 -60 202 -113 30 -19 57 -34 60 -34 4 0 13 -7 21 -15 9 -8 21 -15
28 -15 7 0 120 75 252 166 286 199 420 292 574 396 144 97 174 123 166 137 -4
6 -36 11 -74 11 -37 0 -128 5 -202 10 -359 28 -523 41 -610 50 -52 6 -117 13
-145 15 -50 5 -81 10 -285 40 -109 17 -193 42 -185 56 3 4 -5 9 -17 11 -12 2
-23 9 -26 17 -5 15 57 13 393 -8z m8350 -41 c4 -6 -35 -9 -112 -8 -112 2 -114
2 -43 8 123 10 149 10 155 0z m-230 -16 c26 -10 -2 -24 -50 -24 -22 0 -46 -4
-54 -9 -18 -11 295 -2 333 10 33 10 143 12 133 2 -4 -3 -40 -10 -79 -14 -40
-5 -122 -15 -183 -24 -60 -8 -148 -19 -195 -24 -47 -5 -128 -14 -180 -20 -219
-25 -293 -32 -435 -44 -119 -9 -150 -15 -152 -27 -2 -9 31 -39 81 -75 84 -60
456 -375 652 -552 62 -56 111 -93 124 -93 12 0 42 12 68 27 94 53 256 133 260
128 7 -6 8 -6 -58 -39 -30 -16 -102 -53 -160 -84 -178 -94 -195 -102 -206
-102 -6 0 -78 47 -160 105 -82 58 -157 111 -167 118 -117 80 -403 291 -405
298 -8 21 -40 6 -91 -41 -30 -28 -55 -49 -57 -47 -10 11 -58 472 -51 490 3 9
30 14 93 15 49 1 190 7 314 12 400 19 600 23 625 14z m3541 -551 c-28 -76 -37
-93 -105 -188 -83 -117 -225 -278 -433 -490 -134 -137 -182 -179 -243 -215
-79 -45 -94 -44 -95 2 0 9 -5 29 -12 43 -12 27 -12 27 -103 21 -277 -17 -315
-18 -315 -7 0 7 27 10 78 8 48 -1 84 3 93 9 8 7 23 14 34 17 13 3 9 5 -12 6
-18 0 -33 -3 -33 -9 0 -5 -15 -10 -34 -10 -19 0 -38 5 -41 10 -4 6 5 10 21 10
15 0 35 6 43 13 9 7 41 21 71 31 91 31 333 160 468 250 184 122 277 200 462
386 91 91 167 165 169 163 2 -1 -4 -24 -13 -50z m-11981 -3 c3 -5 2 -10 -4
-10 -5 0 -13 5 -16 10 -3 6 -2 10 4 10 5 0 13 -4 16 -10z m90 -56 c14 -9 24
-18 22 -21 -6 -5 -67 30 -67 40 0 4 -7 7 -15 7 -8 0 -15 5 -15 11 0 7 10 5 25
-5 14 -9 36 -23 50 -32z m65 -40 c0 -2 -7 -4 -15 -4 -8 0 -15 4 -15 10 0 5 7
7 15 4 8 -4 15 -8 15 -10z m8745 -24 c-3 -5 -11 -10 -16 -10 -6 0 -7 5 -4 10
3 6 11 10 16 10 6 0 7 -4 4 -10z m-48 -26 c-3 -3 -12 -4 -19 -1 -8 3 -5 6 6 6
11 1 17 -2 13 -5z m-52 -24 c-3 -5 -11 -10 -16 -10 -6 0 -7 5 -4 10 3 6 11 10
16 10 6 0 7 -4 4 -10z m-8770 -6240 c3 -5 30 -21 58 -34 37 -18 46 -25 29 -25
-12 -1 -31 4 -41 11 -10 6 -26 8 -36 4 -14 -5 -15 -9 -5 -21 10 -12 9 -15 -4
-15 -11 0 -16 9 -16 29 0 16 -3 36 -6 45 -7 17 11 22 21 6z m8355 -54 c0 -8
-4 -18 -10 -21 -5 -3 -10 -29 -10 -56 0 -44 -3 -51 -26 -59 -32 -13 -44 -13
-44 0 0 6 8 10 19 10 19 0 31 25 31 68 0 18 -6 22 -30 22 -16 0 -30 -4 -30
-10 0 -5 -16 -10 -36 -10 -21 0 -33 4 -29 10 3 6 17 10 31 10 24 0 33 3 89 32
39 21 45 21 45 4z m-8195 -26 c3 -5 16 -10 28 -10 12 0 31 -7 41 -15 11 -8 30
-15 42 -15 13 0 25 -4 28 -9 3 -5 18 -11 33 -14 25 -4 49 -12 118 -37 11 -4
49 -15 85 -25 36 -9 73 -21 82 -26 10 -5 27 -9 38 -9 12 0 45 -7 73 -16 92
-27 222 -56 427 -93 182 -33 228 -38 570 -66 231 -18 620 -15 770 6 41 5 109
14 150 19 41 5 109 16 150 24 118 26 160 30 160 17 0 -6 -17 -11 -39 -11 -21
0 -52 -7 -67 -15 -16 -8 -50 -15 -76 -15 -27 0 -48 -4 -48 -10 0 -6 -26 -10
-59 -10 -33 0 -72 -5 -88 -12 -15 -6 -73 -15 -128 -20 -299 -26 -294 -24 -81
-26 146 -2 197 -5 189 -13 -17 -17 -669 -24 -898 -9 -372 24 -547 40 -690 65
-49 8 -119 19 -155 25 -36 5 -78 14 -94 19 -15 6 -39 11 -53 11 -15 0 -40 4
-57 9 -17 5 -58 17 -91 26 -33 9 -74 21 -91 26 -17 5 -40 9 -52 9 -11 0 -24 5
-27 10 -3 6 -13 10 -22 10 -8 0 -29 6 -46 13 -46 20 -99 38 -124 44 -13 3 -23
9 -23 14 0 5 -8 9 -18 9 -25 0 -95 37 -83 44 12 8 41 -3 41 -15 0 -5 11 -9 24
-9 14 0 28 -4 31 -10 3 -5 17 -10 29 -10 13 0 37 -7 52 -15 16 -8 37 -15 47
-15 9 0 17 -4 17 -10 0 -5 15 -10 34 -10 19 0 38 -4 41 -10 3 -5 16 -10 28
-10 12 0 35 -7 51 -15 15 -8 39 -15 52 -15 13 0 32 -4 42 -9 9 -6 38 -13 65
-16 26 -3 47 -10 47 -15 0 -4 24 -10 53 -13 103 -10 214 -25 253 -35 21 -6 62
-9 89 -7 31 2 58 -1 71 -10 11 -7 61 -16 112 -19 51 -3 133 -9 182 -12 57 -4
90 -2 90 4 0 6 -41 12 -97 14 -66 2 -98 7 -101 16 -2 8 -26 12 -72 12 -38 0
-72 5 -75 10 -3 6 -28 10 -54 10 -26 0 -56 7 -67 15 -10 8 -38 15 -61 15 -23
0 -44 4 -47 9 -3 4 -28 11 -56 15 -27 4 -50 11 -50 16 0 6 -20 10 -44 10 -25
0 -47 4 -50 9 -4 5 -29 12 -56 16 -28 4 -47 11 -44 16 3 5 -13 9 -35 9 -22 0
-43 5 -46 10 -3 6 -16 10 -28 10 -12 0 -35 7 -51 15 -15 8 -41 15 -57 15 -16
0 -29 4 -29 10 0 5 -16 12 -35 16 -19 3 -35 10 -35 15 0 5 -13 9 -29 9 -16 0
-34 7 -41 15 -7 8 -23 15 -36 15 -13 0 -24 5 -24 10 0 6 -11 10 -24 10 -14 0
-28 5 -31 10 -3 6 5 10 19 10 14 0 28 -4 31 -10z m-139 -67 c-11 -11 -36 7
-36 27 0 20 0 20 21 -1 11 -11 18 -23 15 -26z m8154 22 c0 -10 -10 -15 -29
-15 -17 0 -33 -4 -36 -10 -3 -5 -22 -10 -41 -10 -24 0 -34 -5 -34 -15 0 -10
-11 -15 -35 -15 -19 0 -35 -4 -35 -10 0 -5 -15 -10 -34 -10 -18 0 -39 -7 -46
-15 -7 -8 -28 -15 -46 -15 -19 0 -34 -4 -34 -10 0 -5 -15 -10 -32 -10 -18 0
-42 -7 -52 -15 -11 -8 -35 -15 -53 -15 -18 0 -33 -4 -33 -10 0 -5 -14 -10 -30
-10 -17 0 -47 -7 -67 -15 -19 -8 -53 -15 -74 -15 -22 0 -39 -4 -39 -10 0 -5
-22 -10 -49 -10 -27 0 -62 -7 -77 -15 -16 -8 -55 -15 -86 -15 -32 0 -58 -4
-58 -10 0 -6 -28 -10 -62 -10 -35 0 -88 -7 -118 -15 -30 -8 -104 -15 -165 -16
-60 -1 -99 -4 -85 -7 19 -5 14 -8 -25 -13 -34 -4 -9 -6 80 -7 95 -2 126 -5
118 -13 -19 -19 -1073 4 -1073 23 0 7 55 9 168 5 92 -3 190 -2 217 2 42 6 30
8 -73 12 -75 3 -127 10 -134 17 -7 7 -42 12 -85 12 -47 0 -73 4 -73 11 0 12
63 9 240 -12 142 -17 674 -17 805 0 55 7 132 17 170 21 39 4 108 15 155 24 47
9 105 19 130 22 25 3 54 9 65 14 28 12 156 40 181 40 11 0 24 4 30 9 5 4 43
16 84 26 41 10 84 21 95 25 67 26 113 40 131 40 11 0 24 4 30 8 5 4 36 16 69
26 33 10 69 22 80 26 56 23 65 24 65 5z m-4638 -42 c-7 -72 -22 -88 -20 -23 2
59 4 70 17 70 5 0 6 -21 3 -47z m-32 17 c0 -5 -7 -10 -16 -10 -8 0 -12 5 -9
10 3 6 10 10 16 10 5 0 9 -4 9 -10z m-47 -27 c-7 -2 -19 -2 -25 0 -7 3 -2 5
12 5 14 0 19 -2 13 -5z m-53 -23 c0 -5 -12 -10 -26 -10 -14 0 -23 4 -19 10 3
6 15 10 26 10 10 0 19 -4 19 -10z m4840 -10 c0 -5 -9 -10 -21 -10 -11 0 -17 5
-14 10 3 6 13 10 21 10 8 0 14 -4 14 -10z m-4910 -20 c-20 -13 -40 -13 -40 0
0 6 12 10 28 10 21 0 24 -2 12 -10z m4850 -10 c-20 -13 -50 -13 -50 0 0 6 15
10 33 10 24 0 28 -3 17 -10z m-4910 -10 c0 -5 -15 -10 -32 -10 -25 0 -29 3
-18 10 20 13 50 13 50 0z m4850 -10 c0 -5 -13 -10 -30 -10 -16 0 -30 5 -30 10
0 6 14 10 30 10 17 0 30 -4 30 -10z m-4610 -14 c0 -17 -14 -29 -23 -20 -8 8 3
34 14 34 5 0 9 -6 9 -14z m-320 -6 c-20 -13 -50 -13 -50 0 0 6 15 10 33 10 24
0 28 -3 17 -10z m2177 4 c-3 -3 -12 -4 -19 -1 -8 3 -5 6 6 6 11 1 17 -2 13 -5z
m2673 -14 c-8 -5 -27 -10 -42 -10 -16 0 -28 -4 -28 -10 0 -5 -16 -10 -35 -10
-19 0 -35 5 -35 10 0 6 16 10 35 10 19 0 35 5 35 10 0 6 19 10 43 10 31 0 38
-3 27 -10z m-4910 -10 c0 -5 -19 -10 -42 -10 -32 0 -39 3 -28 10 20 13 70 13
70 0z m2330 -6 c0 -2 -9 -4 -21 -4 -11 0 -18 4 -14 10 5 8 35 3 35 -6z m-2430
-24 c-20 -13 -70 -13 -70 0 0 6 19 10 43 10 31 0 38 -3 27 -10z m2528 3 c-10
-2 -28 -2 -40 0 -13 2 -5 4 17 4 22 1 32 -1 23 -4z m2320 -14 c-7 -5 -27 -9
-45 -9 -17 0 -35 -4 -38 -10 -3 -5 -25 -10 -49 -10 -23 0 -47 -5 -53 -11 -12
-12 -97 -28 -188 -36 -33 -3 -65 -9 -71 -14 -6 -5 -50 -11 -98 -14 -48 -2 -92
-7 -98 -11 -11 -7 -50 -10 -236 -18 -67 -2 -91 -1 -83 7 7 7 74 13 163 15 84
3 155 8 158 12 5 8 134 26 260 37 36 3 68 9 71 14 3 5 33 12 67 15 34 4 62 11
62 15 0 5 23 9 50 9 28 0 50 4 50 9 0 10 56 19 78 12 11 -3 11 -5 0 -12z
m-2203 -9 c15 -6 8 -9 -27 -9 -26 -1 -50 4 -53 9 -8 12 52 12 80 0z m-2377
-17 c-10 -2 -26 -2 -35 0 -10 3 -2 5 17 5 19 0 27 -2 18 -5z m2483 -3 c16 0
29 -4 29 -10 0 -11 -42 -13 -91 -3 -28 5 -30 7 -14 14 11 4 26 6 33 3 8 -2 27
-4 43 -4z m-2563 -21 c-12 -7 -24 -7 -35 0 -15 9 -12 10 17 10 29 0 32 -1 18
-10z m-98 -19 c0 -5 -17 -10 -37 -10 -28 0 -34 3 -23 10 20 13 60 13 60 0z
m-137 -27 c-18 -2 -48 -2 -65 0 -18 2 -4 4 32 4 36 0 50 -2 33 -4z m2704 0
c-20 -2 -52 -2 -70 0 -17 2 0 4 38 4 39 0 53 -2 32 -4z m-2847 -23 c-8 -5 -67
-9 -130 -9 -73 1 -106 4 -90 9 37 12 239 12 220 0z m-4371 -3075 c62 -31 125
-102 151 -171 24 -65 26 -114 6 -114 -17 0 -76 66 -96 107 -27 53 -61 93 -81
93 -19 0 -20 -4 -13 -85 7 -89 -2 -108 -26 -57 -26 54 -25 252 1 252 5 0 31
-11 58 -25z m11452 6 c19 -15 24 -30 27 -88 4 -61 0 -77 -23 -126 -24 -49 -50
-76 -61 -64 -2 2 5 30 16 62 21 62 27 140 10 150 -15 9 -35 -6 -80 -62 -47
-60 -65 -67 -55 -23 10 47 34 88 75 131 41 44 57 47 91 20z m-329 -107 c10
-58 9 -114 -2 -114 -5 0 -10 9 -10 20 0 55 -78 -2 -161 -116 -60 -82 -74 -94
-110 -94 -31 0 -23 29 35 130 48 86 62 101 137 157 46 35 88 61 94 60 5 -2 13
-21 17 -43z m-10671 -12 c81 -53 185 -182 225 -282 37 -91 -31 -63 -122 52
-79 100 -125 148 -143 148 -8 0 -23 -7 -33 -17 -17 -15 -18 -14 -18 40 0 97
15 107 91 59z m1670 -4 c99 -49 320 -282 306 -322 -5 -14 -74 -8 -107 9 -15 8
-69 60 -121 116 -52 56 -118 117 -146 136 -29 18 -53 35 -53 38 0 2 4 15 10
29 13 34 33 33 111 -6z m7451 -13 c6 -23 4 -32 -8 -40 -96 -61 -115 -79 -181
-166 -76 -101 -113 -132 -176 -143 -29 -6 -39 -3 -43 9 -10 25 79 148 176 245
125 126 214 162 232 95z m-8349 -134 c48 -46 104 -110 125 -140 39 -58 70
-136 59 -147 -9 -9 -86 22 -113 44 -11 9 -44 51 -74 92 -103 144 -148 177
-172 125 -6 -14 -17 -25 -23 -25 -12 0 -25 64 -25 121 0 87 89 59 223 -70z
m9321 81 c11 -40 -5 -82 -33 -82 -12 0 -50 -34 -98 -87 -43 -48 -94 -104 -115
-124 -61 -61 -128 -62 -98 -2 73 147 269 345 325 329 5 -1 14 -17 19 -34z"/>
<path d="M13135 27724 c-680 -18 -1061 -80 -1380 -224 -218 -98 -365 -261
-435 -480 -83 -261 -100 -754 -41 -1180 80 -570 253 -943 548 -1180 164 -132
496 -258 793 -301 466 -67 943 -63 1320 11 71 14 191 40 235 51 91 24 255 95
325 142 77 51 245 193 290 243 14 16 58 66 98 112 458 522 718 1234 699 1916
-7 267 -43 383 -154 493 -90 89 -325 192 -574 252 -277 66 -589 111 -914 130
-187 12 -637 20 -810 15z"/>
<path d="M19245 27709 c-346 -15 -699 -46 -915 -80 -248 -40 -402 -75 -565
-131 -259 -88 -469 -230 -532 -358 -48 -98 -56 -153 -61 -390 -4 -229 1 -298
38 -515 54 -313 192 -699 330 -928 11 -17 23 -39 27 -47 34 -76 212 -309 322
-424 308 -319 554 -433 1111 -513 162 -23 669 -23 865 0 590 70 911 190 1146
426 254 255 412 670 499 1310 29 208 28 614 0 790 -38 229 -102 371 -228 504
-159 167 -364 250 -772 312 -58 9 -116 18 -130 20 -14 3 -153 12 -310 20 -307
16 -525 17 -825 4z m-1215 -1659 c0 -5 -5 -10 -11 -10 -5 0 -7 5 -4 10 3 6 8
10 11 10 2 0 4 -4 4 -10z"/>
<path d="M16518 27233 c12 -2 30 -2 40 0 9 3 -1 5 -23 4 -22 0 -30 -2 -17 -4z"/>
<path d="M8890 21840 c0 -6 7 -10 15 -10 8 0 15 2 15 4 0 2 -7 6 -15 10 -8 3
-15 1 -15 -4z"/>
<path d="M9532 21590 c0 -22 4 -40 9 -40 5 0 9 11 9 25 0 20 5 25 27 25 32 0
20 15 -19 24 -26 6 -27 4 -26 -34z"/>
<path d="M9615 21590 c-4 -6 11 -10 37 -9 33 0 38 2 23 9 -28 12 -53 12 -60 0z"/>
<path d="M9730 21560 c0 -5 9 -10 21 -10 11 0 17 5 14 10 -3 6 -13 10 -21 10
-8 0 -14 -4 -14 -10z"/>
<path d="M9510 21483 c0 -21 -7 -47 -15 -57 -8 -11 -15 -39 -15 -63 0 -24 -4
-43 -10 -43 -5 0 -10 -14 -10 -30 0 -17 -7 -47 -15 -67 -8 -19 -15 -48 -15
-64 0 -15 -4 -31 -10 -34 -5 -3 -10 -23 -10 -43 -1 -20 -7 -48 -15 -62 -8 -14
-14 -37 -15 -52 0 -15 -4 -30 -10 -33 -5 -3 -10 -18 -10 -33 0 -15 -7 -40 -15
-56 -8 -15 -15 -43 -15 -60 0 -18 -4 -36 -9 -41 -5 -6 -11 -28 -15 -51 -5 -33
-2 -45 14 -59 10 -9 24 -15 31 -13 13 4 38 87 39 129 0 14 4 29 9 35 9 9 27
79 37 139 3 17 9 39 14 50 37 91 49 145 30 145 -5 0 -10 -11 -10 -25 0 -14 -4
-25 -10 -25 -13 0 -12 15 5 80 8 30 15 73 15 95 0 21 6 57 14 80 33 98 46 195
26 195 -5 0 -10 -17 -10 -37z m-73 -465 c-3 -8 -6 -5 -6 6 -1 11 2 17 5 13 3
-3 4 -12 1 -19z"/>
<path d="M9860 21510 c0 -5 9 -10 21 -10 11 0 17 5 14 10 -3 6 -13 10 -21 10
-8 0 -14 -4 -14 -10z"/>
<path d="M9660 21463 c-7 -27 -19 -69 -27 -95 -21 -69 -15 -98 27 -120 20 -10
56 -21 81 -24 l45 -6 16 43 c23 61 41 149 37 179 -5 31 -77 70 -130 70 -35 0
-37 -2 -49 -47z"/>
<path d="M9598 21450 c-7 -24 -3 -38 8 -28 3 4 4 17 2 30 l-3 23 -7 -25z"/>
<path d="M9880 21406 c0 -30 -4 -57 -9 -61 -5 -3 -12 -19 -16 -36 -4 -17 -13
-42 -21 -57 -12 -23 -12 -29 0 -41 25 -24 46 -6 46 39 0 22 7 51 16 64 18 29
16 137 -3 144 -9 3 -13 -12 -13 -52z"/>
<path d="M9546 21285 c-3 -8 -1 -15 4 -15 6 0 10 7 10 15 0 8 -2 15 -4 15 -2
0 -6 -7 -10 -15z"/>
<path d="M9522 21220 c0 -19 2 -27 5 -17 2 9 2 25 0 35 -3 9 -5 1 -5 -18z"/>
<path d="M9497 21150 c-3 -11 -1 -20 4 -20 5 0 9 9 9 20 0 11 -2 20 -4 20 -2
0 -6 -9 -9 -20z"/>
<path d="M9630 21140 c19 -13 30 -13 30 0 0 6 -10 10 -22 10 -19 0 -20 -2 -8
-10z"/>
<path d="M9716 21039 c-10 -98 -7 -357 4 -364 6 -3 10 -40 10 -81 0 -57 3 -74
14 -74 8 0 17 -8 20 -17 5 -11 10 -13 17 -6 9 9 4 100 -25 408 -20 205 -29
237 -40 134z m24 -208 c0 -6 -4 -13 -10 -16 -5 -3 -10 1 -10 9 0 9 5 16 10 16
6 0 10 -4 10 -9z m-13 -63 c-3 -8 -6 -5 -6 6 -1 11 2 17 5 13 3 -3 4 -12 1
-19z"/>
<path d="M10218 20954 c-5 -4 -8 -25 -8 -48 0 -28 3 -37 11 -29 6 6 9 27 7 48
-2 20 -6 33 -10 29z"/>
<path d="M10237 20821 c-8 -38 -8 -162 0 -143 15 38 21 -4 20 -130 -1 -96 2
-142 9 -145 6 -2 9 -15 6 -28 -3 -20 0 -25 16 -25 12 0 26 -8 32 -17 24 -40
-17 290 -51 403 -5 17 -9 41 -10 55 0 13 -4 33 -8 44 -7 16 -9 14 -14 -14z
m40 -313 c-2 -13 -4 -3 -4 22 0 25 2 35 4 23 2 -13 2 -33 0 -45z m33 -125 c0
-19 -3 -24 -10 -17 -6 6 -8 18 -4 27 9 24 14 21 14 -10z"/>
<path d="M20040 20545 c-7 -9 -8 -15 -2 -15 5 0 12 7 16 15 3 8 4 15 2 15 -2
0 -9 -7 -16 -15z"/>
<path d="M12640 20530 c0 -6 7 -10 15 -10 8 0 15 2 15 4 0 2 -7 6 -15 10 -8 3
-15 1 -15 -4z"/>
<path d="M20005 20510 c-3 -5 -1 -10 4 -10 6 0 11 5 11 10 0 6 -2 10 -4 10 -3
0 -8 -4 -11 -10z"/>
<path d="M12690 20490 c14 -11 32 -19 40 -19 9 0 6 5 -7 11 -13 6 -23 15 -23
20 0 4 -8 8 -17 8 -15 0 -13 -4 7 -20z"/>
<path d="M8959 20057 c14 -18 71 -24 71 -7 0 6 -11 10 -24 10 -13 0 -33 3 -43
7 -16 6 -16 5 -4 -10z"/>
<path d="M9094 20010 c46 -23 46 -23 46 -10 0 6 -7 10 -15 10 -8 0 -15 5 -15
10 0 6 -12 10 -27 10 -27 -1 -26 -2 11 -20z"/>
<path d="M9107 19863 c-4 -3 -7 -16 -6 -27 0 -19 1 -19 10 3 10 24 8 36 -4 24z"/>
<path d="M21021 17144 c0 -11 3 -14 6 -6 3 7 2 16 -1 19 -3 4 -6 -2 -5 -13z"/>
<path d="M21022 17085 c0 -16 2 -22 5 -12 2 9 2 23 0 30 -3 6 -5 -1 -5 -18z"/>
<path d="M21072 17038 c-2 -43 -8 -75 -15 -80 -16 -10 -23 -246 -8 -261 6 -6
11 -49 11 -100 0 -48 4 -96 9 -105 5 -9 12 -55 16 -102 3 -47 10 -89 16 -95 5
-5 9 -40 9 -77 0 -37 4 -68 9 -68 7 0 24 -94 38 -215 3 -27 9 -55 14 -61 10
-12 28 -124 36 -229 3 -33 8 -62 12 -65 8 -6 30 -130 37 -215 3 -33 10 -64 15
-69 5 -6 9 -36 9 -68 0 -32 4 -58 9 -58 12 0 2 498 -10 522 -5 9 -9 70 -9 135
0 78 -4 123 -12 131 -6 6 -14 51 -16 99 -2 49 -8 92 -13 98 -5 5 -9 36 -9 70
0 34 -5 66 -11 72 -11 11 -22 73 -38 218 -4 39 -9 66 -10 60 -6 -22 -19 43
-20 97 -1 31 -5 60 -11 63 -5 3 -10 43 -10 89 0 57 -5 88 -15 102 -10 13 -14
45 -15 102 0 101 -14 109 -18 10z"/>
<path d="M21021 17014 c0 -11 3 -14 6 -6 3 7 2 16 -1 19 -3 4 -6 -2 -5 -13z"/>
<path d="M21313 15110 c0 -30 2 -43 4 -27 2 15 2 39 0 55 -2 15 -4 2 -4 -28z"/>
<path d="M21314 11860 c-28 -11 -40 -30 -20 -30 9 0 16 5 16 10 0 6 7 10 15
10 8 0 15 5 15 10 0 6 -1 10 -2 9 -2 0 -13 -4 -24 -9z"/>
<path d="M16276 17654 c4 -38 7 -79 7 -91 -1 -27 6 -28 32 -9 19 14 19 15 -4
85 -31 96 -45 101 -35 15z"/>
<path d="M17120 17582 c0 -78 4 -122 10 -122 10 0 4 228 -6 239 -2 2 -4 -50
-4 -117z"/>
<path d="M16390 17532 c0 -5 -23 -12 -51 -15 -51 -6 -99 -19 -154 -42 -16 -7
-41 -17 -55 -22 -120 -45 -342 -187 -427 -274 -49 -49 -58 -42 -13 11 37 43
37 51 3 72 -16 9 -63 46 -106 83 -43 37 -80 65 -82 63 -3 -2 6 -20 19 -39 35
-52 89 -206 82 -235 -7 -27 5 -32 24 -9 25 31 22 5 -4 -29 -14 -19 -26 -39
-26 -45 0 -6 -4 -11 -9 -11 -5 0 -12 -10 -16 -22 l-7 -23 -7 25 -7 25 -24 -33
c-35 -47 -73 -43 -204 18 -58 27 -106 47 -106 45 0 -7 39 -45 45 -45 3 0 17
-13 32 -28 43 -44 150 -122 166 -122 8 0 18 7 21 16 4 9 9 14 12 11 5 -5 -3
-23 -28 -67 -11 -20 -13 -26 -34 -95 -32 -109 -44 -178 -59 -348 -15 -172 -10
-329 16 -471 15 -87 68 -243 102 -306 17 -30 40 -72 51 -94 28 -52 173 -231
227 -281 140 -129 320 -240 472 -290 44 -15 56 -23 51 -35 -3 -8 -12 -49 -19
-90 -7 -41 -18 -95 -24 -120 -6 -25 -10 -56 -10 -70 1 -23 2 -22 16 10 21 48
72 230 73 259 0 22 3 23 43 17 23 -4 88 -11 143 -15 56 -5 107 -12 113 -15 7
-5 11 -55 11 -147 0 -86 4 -139 10 -139 6 0 11 47 12 118 2 156 2 155 10 168
4 6 34 14 68 17 170 18 347 89 540 215 210 139 406 388 493 627 14 39 33 88
42 110 16 38 18 38 32 20 12 -18 12 -20 -1 -23 -31 -7 -16 -31 25 -42 43 -12
144 -30 167 -30 24 0 11 16 -30 38 -24 12 -67 35 -96 52 -29 16 -60 30 -69 30
-13 0 -15 9 -9 58 4 31 9 110 13 175 6 114 7 118 27 113 69 -20 173 -37 204
-34 32 3 25 6 -53 27 -49 13 -108 26 -130 30 l-40 6 -17 120 c-31 214 -32 225
-19 225 6 0 11 -9 11 -20 0 -11 7 -20 15 -20 15 0 141 63 157 79 4 4 -43 7
-104 6 l-112 0 -10 30 c-26 81 -134 286 -155 293 -6 2 -11 9 -11 15 0 7 -12
23 -27 37 -14 14 -44 50 -67 80 -62 85 -180 189 -267 237 -66 37 -134 71 -179
88 -25 10 -54 21 -65 25 -11 5 -62 17 -112 26 -51 10 -93 21 -93 24 0 4 -92 8
-205 9 -121 1 -205 -1 -205 -7z m420 -46 c169 -27 362 -106 485 -198 187 -140
357 -380 418 -588 101 -343 101 -657 -1 -925 -116 -308 -321 -534 -619 -683
-188 -95 -335 -127 -533 -119 -294 12 -538 120 -756 332 -202 196 -324 433
-369 712 -20 126 -20 419 1 538 62 361 282 654 617 824 119 60 209 90 337 110
88 14 327 12 420 -3z m-1260 -501 c0 -8 -4 -15 -10 -15 -5 0 -7 7 -4 15 4 8 8
15 10 15 2 0 4 -7 4 -15z m-33 -57 c-3 -8 -6 -5 -6 6 -1 11 2 17 5 13 3 -3 4
-12 1 -19z"/>
<path d="M16415 17384 c-354 -54 -641 -256 -793 -559 -96 -191 -94 -304 5
-335 70 -21 80 -30 93 -79 22 -84 77 -181 87 -153 9 24 23 11 17 -15 -7 -26
-6 -27 11 -13 17 14 18 13 13 -7 -4 -16 -2 -23 8 -23 8 0 14 -4 14 -10 0 -5
26 -22 58 -37 107 -50 249 -42 358 22 55 33 133 121 127 145 -3 10 0 21 6 24
6 4 11 16 11 28 0 27 56 124 76 132 9 3 23 6 32 6 14 0 14 -3 -4 -18 -28 -24
-74 -98 -74 -119 0 -15 4 -14 20 7 11 14 20 31 20 37 0 16 78 73 99 73 30 -1
53 -28 92 -110 78 -164 105 -239 95 -266 -3 -8 -17 -14 -30 -14 -18 0 -27 -7
-31 -22 -7 -24 -104 -78 -141 -78 -34 0 -145 64 -162 93 -14 22 -14 31 -4 47
14 22 16 40 5 40 -14 0 -53 -66 -53 -88 0 -28 70 -94 137 -129 51 -27 53 -29
53 -70 0 -34 -5 -45 -27 -61 -53 -38 -148 -80 -194 -87 -84 -12 -180 30 -228
100 -23 35 -51 47 -51 23 1 -27 47 -94 87 -124 149 -114 548 -139 808 -52 73
24 108 49 146 101 34 47 37 67 9 67 -11 0 -31 -18 -50 -45 -42 -61 -80 -79
-160 -79 -54 0 -77 6 -138 36 -40 20 -79 42 -87 48 -8 6 -33 10 -57 8 l-43 -3
3 50 c4 56 13 71 38 61 16 -6 16 -8 1 -19 -11 -8 -14 -17 -8 -26 8 -12 12 -9
22 15 16 35 57 77 132 132 30 23 58 46 61 50 11 19 -23 144 -48 177 -14 18
-26 40 -26 48 0 9 -3 17 -7 19 -5 2 -15 19 -24 38 -9 19 -26 54 -37 78 -20 40
-20 45 -6 59 14 14 14 18 -5 37 -16 16 -37 21 -92 24 -63 4 -73 2 -95 -19
l-24 -22 0 51 0 52 114 0 114 0 7 -72 c9 -85 42 -177 99 -268 47 -76 52 -80
131 -122 56 -30 67 -32 165 -32 96 -1 110 2 159 27 106 56 187 164 206 275 4
23 12 43 18 44 7 0 17 2 23 2 23 2 70 31 97 60 33 36 35 70 6 157 -86 263
-308 490 -588 604 -132 54 -245 76 -411 80 -85 2 -168 1 -185 -1z m363 -49
c296 -62 552 -229 697 -455 42 -65 79 -148 74 -166 -2 -5 2 -19 9 -30 19 -35
26 -102 13 -118 -16 -19 -70 -31 -83 -18 -12 12 8 138 24 159 7 9 -4 21 -37
42 -58 37 -154 67 -257 80 -170 23 -398 -39 -499 -135 l-35 -35 -54 12 c-30 6
-83 9 -119 6 -62 -5 -67 -4 -100 26 -45 39 -138 80 -221 98 -80 17 -256 17
-330 0 -86 -20 -203 -61 -222 -79 -32 -27 -22 11 27 103 81 156 178 262 331
362 137 89 274 141 429 162 87 12 264 5 353 -14z m537 -560 c86 -22 134 -45
141 -67 19 -62 -64 -398 -98 -398 -11 0 -10 18 0 24 14 8 34 145 28 182 -9 48
-56 97 -118 125 -75 33 -226 32 -313 -1 -114 -44 -145 -107 -130 -260 4 -44 3
-70 -3 -70 -25 0 -92 233 -92 321 0 64 125 128 320 163 45 8 204 -3 265 -19z
m-1121 -11 c73 -19 158 -59 193 -92 25 -23 26 -25 20 -130 -6 -116 -23 -181
-63 -249 -24 -42 -46 -56 -26 -16 22 43 32 95 32 170 0 72 -3 85 -25 111 -66
79 -283 119 -415 77 -30 -10 -95 -90 -108 -133 -7 -22 -12 -65 -12 -96 0 -92
-21 -63 -41 55 -10 57 -22 120 -28 139 -6 19 -13 51 -16 71 -5 34 -3 38 27 52
36 16 83 32 138 46 60 16 256 13 324 -5z m-514 -111 c0 -21 7 -56 16 -80 26
-67 14 -79 -43 -45 -47 28 -48 29 -48 79 1 57 16 83 51 83 21 0 24 -5 24 -37z
m130 -338 c0 -8 -4 -17 -10 -20 -6 -4 -10 5 -10 20 0 15 4 24 10 20 6 -3 10
-12 10 -20z m1040 -30 c0 -8 -4 -15 -10 -15 -5 0 -10 7 -10 15 0 8 5 15 10 15
6 0 10 -7 10 -15z m-122 -533 c40 -19 71 -40 69 -46 -2 -6 -23 -14 -48 -19
-59 -11 -329 -4 -353 10 -22 12 -23 11 84 65 66 33 81 36 125 31 28 -3 83 -21
123 -41z"/>
<path d="M16430 16324 c0 -8 5 -12 10 -9 6 3 10 10 10 16 0 5 -4 9 -10 9 -5 0
-10 -7 -10 -16z"/>
<path d="M16360 15577 c0 -22 72 -67 137 -84 97 -26 240 0 282 50 17 21 17 21
-52 -3 -105 -37 -262 -22 -339 32 -22 15 -28 16 -28 5z"/>
<path d="M17522 17456 c-46 -42 -100 -85 -120 -97 -20 -13 -39 -24 -41 -25 -2
-2 9 -16 25 -32 53 -52 114 -123 114 -133 0 -5 5 -9 11 -9 7 0 8 7 4 18 -4 9
-10 25 -12 35 -6 19 23 109 63 195 13 29 24 58 24 65 0 7 5 18 11 24 6 6 10
16 7 23 -2 6 -41 -23 -86 -64z"/>
<path d="M17530 17153 c0 -13 60 -76 66 -70 3 2 -11 21 -31 42 -19 22 -35 34
-35 28z"/>
<path d="M17826 17084 c-57 -21 -169 -35 -180 -24 -15 15 -36 12 -36 -5 0 -9
12 -18 30 -22 25 -4 28 -8 19 -20 -7 -7 -10 -15 -8 -16 2 -1 12 -8 21 -15 14
-11 21 -10 45 5 15 9 30 20 33 23 3 3 22 14 43 25 43 22 97 65 82 63 -5 0 -28
-7 -49 -14z m-106 -64 c-8 -5 -22 -9 -30 -9 -10 0 -8 3 5 9 27 12 43 12 25 0z"/>
<path d="M15113 16213 c-24 -2 -43 -8 -43 -14 0 -5 55 -9 130 -9 109 0 130 2
130 15 0 12 -16 15 -87 13 -49 -1 -107 -3 -130 -5z"/>
<path d="M15320 15871 c-14 -5 -37 -14 -50 -21 -47 -24 -60 -30 -72 -30 -17 0
-87 -34 -88 -42 0 -15 29 -8 76 17 26 14 55 25 65 25 10 0 28 4 41 9 13 5 35
12 51 15 15 4 27 13 27 21 0 16 -11 17 -50 6z"/>
<path d="M17720 15541 c0 -27 52 -61 181 -120 91 -42 71 -12 -34 50 -40 23
-86 53 -103 66 -38 28 -44 29 -44 4z"/>
<path d="M15455 15515 c-36 -16 -162 -130 -154 -139 6 -6 141 83 147 97 2 4
10 7 18 7 9 0 24 5 35 11 16 8 18 13 8 25 -14 17 -16 17 -54 -1z"/>
<path d="M17570 15267 c0 -17 6 -27 38 -62 6 -7 12 -16 12 -20 0 -4 6 -13 13
-20 26 -30 37 -44 37 -50 0 -11 40 -49 45 -43 3 3 -24 47 -61 99 -82 115 -84
118 -84 96z"/>
<path d="M15701 15222 c-7 -13 -6 -23 1 -30 17 -17 1 -27 -17 -12 -8 7 -15 8
-15 2 0 -5 -23 -34 -51 -63 -28 -30 -55 -63 -61 -74 -11 -19 -10 -19 8 -5 75
59 184 154 184 160 0 39 -32 53 -49 22z m29 -22 c0 -5 -4 -10 -10 -10 -5 0
-10 5 -10 10 0 6 5 10 10 10 6 0 10 -4 10 -10z"/>
<path d="M17300 15076 c0 -15 18 -54 30 -66 9 -9 30 -44 39 -67 6 -11 15 -24
20 -28 6 -3 11 -15 11 -26 0 -10 5 -19 10 -19 6 0 10 -7 10 -15 0 -8 5 -15 10
-15 18 0 10 23 -48 134 -54 103 -82 138 -82 102z"/>
<path d="M16008 14983 c-31 -36 -150 -234 -144 -240 7 -7 15 2 90 108 30 41
68 87 85 102 30 25 30 27 12 37 -25 13 -25 13 -43 -7z"/>
<path d="M16955 14920 c-3 -5 4 -28 16 -52 12 -23 32 -72 45 -107 26 -71 54
-111 54 -76 0 11 -13 57 -29 102 -46 128 -68 162 -86 133z"/>
<path d="M22908 12663 c7 -3 16 -2 19 1 4 3 -2 6 -13 5 -11 0 -14 -3 -6 -6z"/>
<path d="M18603 6563 c9 -2 23 -2 30 0 6 3 -1 5 -18 5 -16 0 -22 -2 -12 -5z"/>
<path d="M22878 23793 c23 -2 59 -2 80 0 20 2 1 4 -43 4 -44 0 -61 -2 -37 -4z"/>
<path d="M23438 23773 c6 -2 18 -2 25 0 6 3 1 5 -13 5 -14 0 -19 -2 -12 -5z"/>
<path d="M22498 22993 c12 -2 32 -2 45 0 12 2 2 4 -23 4 -25 0 -35 -2 -22 -4z"/>
<path d="M22600 22982 c24 -15 90 -24 90 -12 0 5 -15 10 -34 10 -19 0 -43 3
-53 6 -14 4 -15 4 -3 -4z"/>
<path d="M22755 22950 c11 -5 31 -9 45 -9 23 0 23 1 5 9 -11 5 -31 9 -45 9
-23 0 -23 -1 -5 -9z"/>
<path d="M22893 22923 c9 -2 25 -2 35 0 9 3 1 5 -18 5 -19 0 -27 -2 -17 -5z"/>
<path d="M23025 22900 c3 -5 16 -10 28 -10 18 0 19 2 7 10 -20 13 -43 13 -35
0z"/>
<path d="M23143 22873 c9 -2 25 -2 35 0 9 3 1 5 -18 5 -19 0 -27 -2 -17 -5z"/>
<path d="M23378 22823 c7 -3 16 -2 19 1 4 3 -2 6 -13 5 -11 0 -14 -3 -6 -6z"/>
<path d="M23480 22800 c20 -13 33 -13 25 0 -3 6 -14 10 -23 10 -15 0 -15 -2
-2 -10z"/>
<path d="M23588 22773 c6 -2 18 -2 25 0 6 3 1 5 -13 5 -14 0 -19 -2 -12 -5z"/>
<path d="M23878 22703 c7 -3 16 -2 19 1 4 3 -2 6 -13 5 -11 0 -14 -3 -6 -6z"/>
<path d="M23978 22673 c7 -3 16 -2 19 1 4 3 -2 6 -13 5 -11 0 -14 -3 -6 -6z"/>
</g>
</svg>
